<?xml version="1.0" encoding="UTF-8"?>
<svg version="1.1" xmlns="http://www.w3.org/2000/svg" width="336" height="280">
<path d="M0 0 C2 2 2 2 2 6 C1.18015625 6.23074219 0.3603125 6.46148437 -0.484375 6.69921875 C-8.61652201 8.9146074 -8.61652201 8.9146074 -14 15 C-14.4125 15.721875 -14.825 16.44375 -15.25 17.1875 C-16.37105272 21.39144771 -16.52015154 25.67815264 -16 30 C-15.34 30.66 -14.68 31.32 -14 32 C-10.94206273 24.49069907 -10.94206273 24.49069907 -9.5625 16.5625 C-9 13 -9 13 -6.6875 10.5625 C-4.35398987 9.20580807 -2.66984409 8.28605472 0 8 C2.8053487 10.8053487 1.56042958 19.62269811 1.6875 23.6875 C1.71090454 24.42297058 1.73430908 25.15844116 1.75842285 25.91619873 C3.49715914 84.58980718 3.49715914 84.58980718 -8.671875 98.9765625 C-11.86560748 101.96556854 -11.86560748 101.96556854 -14 103 C-17.30750411 102.68411478 -17.89515865 102.12334276 -20.125 99.5 C-26.49125419 87.61632552 -24.21570275 74.54673766 -21 62 C-19.09548258 56.19691914 -16.81128923 51.94772449 -12 48 C-10.515 47.505 -10.515 47.505 -9 47 C-9.58743257 50.8953053 -10.4334319 54.54348523 -11.5625 58.3125 C-12.92359956 63.62345712 -13.29802543 68.6125357 -13.3125 74.0625 C-13.31773682 74.80089111 -13.32297363 75.53928223 -13.32836914 76.30004883 C-13.27926052 80.05620651 -13.13123443 81.80314836 -11 85 C-7.71650443 72.02541071 -4.86943135 51.01456947 -9 38 C-9.556875 38.9075 -10.11375 39.815 -10.6875 40.75 C-12.93948989 43.91495877 -14.69157292 45.98266642 -18 48 C-20.625 48.0625 -20.625 48.0625 -23 47 C-28.03062798 40.53204974 -27.49682229 32.5319251 -26.796875 24.73828125 C-25.49305371 16.84449368 -21.42845683 9.90487458 -15.33984375 4.74609375 C-10.23288781 1.2688679 -6.22140849 -1.19133354 0 0 Z " fill="#000000" transform="translate(278,112)"/>
<path d="M0 0 C0.76541639 19.41889738 0.76541639 19.41889738 -4.20703125 26.7890625 C-5.5 28.1875 -5.5 28.1875 -8 30 C-8.99 30 -9.98 30 -11 30 C-11.66 25.71 -12.32 21.42 -13 17 C-14.32 16.67 -15.64 16.34 -17 16 C-17.65489373 17.37070781 -18.29844963 18.74683444 -18.9375 20.125 C-19.29714844 20.89070313 -19.65679687 21.65640625 -20.02734375 22.4453125 C-24.17142635 33.32977042 -23.37609196 48.4302067 -19.36328125 59.1640625 C-18.09652376 61.22354142 -18.09652376 61.22354142 -15.51953125 61.89453125 C-12.79486397 62.27233234 -12.79486397 62.27233234 -10.375 60.0625 C-6.79992981 55.45254107 -5.34994038 50.61225212 -4 45 C-1.525 44.505 -1.525 44.505 1 44 C3.05630697 48.11261395 2.4031685 52.50430754 1.24609375 56.796875 C-1.59289136 65.03549846 -4.70698555 69.98675035 -12.56640625 74.0390625 C-16.50980578 75.59616729 -19.86620996 76.05607775 -24 75 C-29.44709002 72.00198921 -32.10709456 67.88903914 -34 62 C-37.50561383 44.62005537 -34.36106102 27.731691 -25 12.8125 C-21.58120235 8.95539496 -16.67901466 6.91164881 -12.15625 4.61328125 C-9.02841398 3.07988261 -9.02841398 3.07988261 -6.34375 1.29296875 C-4 0 -4 0 0 0 Z " fill="#000000" transform="translate(101,89)"/>
<path d="M0 0 C2.4007285 3.60109275 2.30622383 6.24439089 2.30078125 10.40625 C2.30506638 11.12735962 2.3093515 11.84846924 2.31376648 12.59143066 C2.31950381 14.11449128 2.32001442 15.63757929 2.31567383 17.16064453 C2.31251128 19.49168528 2.33598708 21.82145968 2.36132812 24.15234375 C2.36360093 25.6328109 2.3643047 27.11328146 2.36328125 28.59375 C2.372491 29.2906897 2.38170074 29.98762939 2.39118958 30.70568848 C2.36327562 33.62209838 2.32727411 35.5422164 0.60229492 37.95507812 C-1 39 -1 39 -3 39.125 C-5.49379314 37.72224136 -6.44355467 36.1618191 -7.47265625 33.51953125 C-8.66688503 27.81377151 -8.2015758 21.80090372 -8 16 C-10.66758608 18.66758608 -11.11404409 21.57259153 -12 25.125 C-12.17660156 25.80208008 -12.35320312 26.47916016 -12.53515625 27.17675781 C-13.44491624 30.68607273 -14.25601498 34.2027857 -15 37.75 C-16 41 -16 41 -17.875 43 C-20 44 -20 44 -24 44 C-25.53266582 40.93466836 -25.10276471 37.73245728 -25.0625 34.375 C-25.05798828 33.66859375 -25.05347656 32.9621875 -25.04882812 32.234375 C-25.03703875 30.48954725 -25.01910324 28.744763 -25 27 C-25.66 27 -26.32 27 -27 27 C-29.95506096 34.08014606 -31.75058517 40.92664324 -32.6965332 48.515625 C-33.2403601 52.11099889 -33.80791861 53.80791861 -36.41015625 56.41015625 C-39 58 -39 58 -42 59 C-44.22576779 55.66134832 -44.25642147 54.55752439 -44.265625 50.66015625 C-44.26949219 49.06397461 -44.26949219 49.06397461 -44.2734375 47.43554688 C-44.26183594 45.76588867 -44.26183594 45.76588867 -44.25 44.0625 C-44.25773438 42.98419922 -44.26546875 41.90589844 -44.2734375 40.79492188 C-44.22738395 21.57907615 -44.22738395 21.57907615 -39.625 16.25 C-37 15 -37 15 -33 15 C-33 17.64 -33 20.28 -33 23 C-32.43732422 22.18595703 -32.43732422 22.18595703 -31.86328125 21.35546875 C-26.4188966 13.74430129 -26.4188966 13.74430129 -22 12 C-19.61777077 12.27225477 -18.13753399 12.93123301 -16 14 C-15.76925781 13.48050781 -15.53851563 12.96101563 -15.30078125 12.42578125 C-12.10780101 5.59810415 -8.3597236 -0.83597236 0 0 Z " fill="#000000" transform="translate(241,45)"/>
<path d="M0 0 C0.97157529 2.91472588 1.11634696 4.73005185 1.09765625 7.75927734 C1.09435303 8.72392914 1.0910498 9.68858093 1.08764648 10.6824646 C1.07934814 11.72311066 1.0710498 12.76375671 1.0625 13.8359375 C1.05871338 14.90744049 1.05492676 15.97894348 1.05102539 17.08291626 C1.03465712 21.67283756 1.00655965 26.26267038 0.97949219 30.85253906 C0.96141207 34.20116769 0.94931283 37.54978184 0.9375 40.8984375 C0.92920166 41.9350351 0.92090332 42.97163269 0.91235352 44.03964233 C0.90905029 45.01059845 0.90574707 45.98155457 0.90234375 46.98193359 C0.89710693 47.83226166 0.89187012 48.68258972 0.88647461 49.5586853 C1.00583558 52.12549172 1.43450185 54.49666434 2 57 C7.93260332 55.220219 10.47519593 52.7940448 13.73046875 47.5546875 C15.41765796 44.15954367 16.26962081 40.70049444 17.2109375 37.04296875 C18 35 18 35 20.6875 33.375 C21.8321875 33.189375 21.8321875 33.189375 23 33 C25.06887259 39.33592231 26.10174298 45.57737935 24.14648438 52.14941406 C21.4731746 56.46450949 16.010619 58.40025638 11.625 60.625 C9.52875071 61.71156443 7.43738892 62.80762158 5.3515625 63.9140625 C3.95671631 64.6248999 3.95671631 64.6248999 2.53369141 65.35009766 C-0.32527786 67.21181613 -1.96358287 69.287283 -4 72 C-6.28417219 73.36028953 -8.48211861 74.08000488 -11 75 C-12 74 -12 74 -12.10679626 71.78309631 C-12.09854324 70.8028801 -12.09029022 69.82266388 -12.08178711 68.81274414 C-12.0752562 67.70391373 -12.06872528 66.59508331 -12.06199646 65.45265198 C-12.05056107 64.24237839 -12.03912567 63.0321048 -12.02734375 61.78515625 C-12.01468578 59.23632954 -12.0023257 56.68750134 -11.99023438 54.13867188 C-11.96659105 50.10989884 -11.93812752 46.08118829 -11.90405273 42.05249023 C-11.87367245 38.17170748 -11.85601043 34.29102074 -11.83984375 30.41015625 C-11.82638412 29.21810074 -11.8129245 28.02604523 -11.79905701 26.79786682 C-11.77870341 19.94738113 -12.32612428 13.65120606 -14 7 C-12.23462904 5.82508418 -10.46250287 4.66031316 -8.6875 3.5 C-7.70136719 2.8503125 -6.71523437 2.200625 -5.69921875 1.53125 C-3 0 -3 0 0 0 Z " fill="#000000" transform="translate(143,156)"/>
<path d="M0 0 C-0.11593506 0.825 -0.23187012 1.65 -0.35131836 2.5 C-3.49324894 24.17192399 -3.49324894 24.17192399 -5 46 C-5.03996094 47.20527344 -5.07992187 48.41054687 -5.12109375 49.65234375 C-5.34114368 61.98808382 -4.96332629 75.31343066 -0.48828125 86.95703125 C0.13255981 89.55463024 -0.33489417 91.44224401 -1 94 C-2.6875 94.75 -2.6875 94.75 -5 95 C-9.29876959 92.37879903 -11.01178329 89.53903319 -13 85 C-17.30439092 67.18396486 -15.238065 47.65760302 -14.125 29.5625 C-14.04668945 28.25345703 -13.96837891 26.94441406 -13.88769531 25.59570312 C-12.70403237 8.04483885 -12.70403237 8.04483885 -8.5 3 C-5.07936454 0.26349163 -4.534976 0 0 0 Z " fill="#000000" transform="translate(165,41)"/>
<path d="M0 0 C-0.46653593 6.15535405 -1.00805175 12.28963987 -1.75390625 18.41796875 C-4.58831718 41.87207307 -7.3057101 67.34806336 1 90 C1 91.32 1 92.64 1 94 C-1.6875 94.8125 -1.6875 94.8125 -5 95 C-9.74905856 91.57626011 -11.51805783 87.45672701 -13 82 C-14.12823163 74.27355857 -14.19287824 66.61192833 -14.1875 58.8125 C-14.18722809 58.14702148 -14.18695618 57.48154297 -14.18667603 56.79589844 C-14.16726318 46.34464227 -13.82484648 35.93147374 -13.1875 25.5 C-13.11748779 24.24936768 -13.04747559 22.99873535 -12.9753418 21.71020508 C-12.01662417 7.79589558 -12.01662417 7.79589558 -6.4375 2.625 C-2.5 0 -2.5 0 0 0 Z " fill="#000000" transform="translate(150,48)"/>
<path d="M0 0 C5.14686646 10.63685734 3.63932538 24.88876599 1 36 C-0.31194899 39.30889789 -0.89801386 39.93200924 -4 42 C-5.32 42 -6.64 42 -8 42 C-8 33.09 -8 24.18 -8 15 C-14.92995847 21.92995847 -16.79202019 32.42470855 -18.8125 41.75 C-20.20331054 45.55642884 -21.57001538 46.90854596 -25 49 C-25.99 49 -26.98 49 -28 49 C-32.05304128 40.89391744 -29.17960364 24.26806975 -26.75 15.8125 C-25.61779215 12.81187033 -25.03938978 12.03170397 -22.4375 9.9375 C-20 9 -20 9 -18 9 C-17.67 10.65 -17.34 12.3 -17 14 C-16.58041016 13.23816406 -16.58041016 13.23816406 -16.15234375 12.4609375 C-12.67573055 6.49144732 -7.91296243 -1.43872044 0 0 Z " fill="#000000" transform="translate(244,131)"/>
<path d="M0 0 C0 11.88 0 23.76 0 36 C-3.465 36.495 -3.465 36.495 -7 37 C-7.66 36.01 -8.32 35.02 -9 34 C-9.30292969 34.60328125 -9.60585937 35.2065625 -9.91796875 35.828125 C-12.89248291 41.50258278 -15.36070863 45.57978873 -21.5625 48 C-24 48 -24 48 -26.0703125 46.42578125 C-31.74644757 39.29039688 -30.12904025 25.86453278 -29.58203125 17.2421875 C-28.80047288 12.88854018 -27.26434533 10.14581296 -24 7.1875 C-22 6 -22 6 -19 6 C-19.01571045 7.02154175 -19.01571045 7.02154175 -19.03173828 8.0637207 C-19.07328878 11.14660966 -19.09932311 14.22943971 -19.125 17.3125 C-19.14175781 18.38435547 -19.15851563 19.45621094 -19.17578125 20.56054688 C-19.18544922 22.10258789 -19.18544922 22.10258789 -19.1953125 23.67578125 C-19.21102295 25.0975769 -19.21102295 25.0975769 -19.22705078 26.5480957 C-19.17223875 29.25689249 -19.17223875 29.25689249 -17 32 C-13.66762974 26.19431244 -12.74302847 20.40165461 -11.62695312 13.90039062 C-10.68782594 8.93755536 -9.70294528 5.68129063 -6 2 C-3.77661117 0.62673043 -2.60417425 0 0 0 Z " fill="#000000" transform="translate(193,70)"/>
<path d="M0 0 C2 2 2 2 2 6 C0.87851563 6.23783203 0.87851563 6.23783203 -0.265625 6.48046875 C-6.44267078 7.86862455 -6.44267078 7.86862455 -11.5625 11.375 C-14.4442459 16.63731859 -15.62049078 21.02272984 -16 27 C-15.21214647 29.4237259 -15.21214647 29.4237259 -14 31 C-12.18328443 26.54078906 -10.85998938 22.51329654 -10.125 17.75 C-9.46978984 14.23027602 -9.13559671 13.15392059 -6.6875 10.375 C-3.77823887 8.88654082 -2.19961435 8.88209126 1 9 C1.0867562 13.29154022 1.1403089 17.58285668 1.1875 21.875 C1.21263672 23.09832031 1.23777344 24.32164062 1.26367188 25.58203125 C1.27333984 26.74863281 1.28300781 27.91523438 1.29296875 29.1171875 C1.3086792 30.19597168 1.32438965 31.27475586 1.34057617 32.38623047 C1.22818604 33.24877441 1.1157959 34.11131836 1 35 C-2 37 -2 37 -4.0625 36.625 C-4.701875 36.41875 -5.34125 36.2125 -6 36 C-6.66 36 -7.32 36 -8 36 C-9.18455159 37.69684214 -9.18455159 37.69684214 -10.3125 39.8125 C-12.42822541 43.31182296 -14.0425504 45.5159564 -18 47 C-20.625 47.125 -20.625 47.125 -23 46 C-27.58908643 39.03724818 -26.81940038 30.50412538 -25.37890625 22.5859375 C-22.96093084 13.40837752 -18.46118303 6.64205115 -10.4375 1.4375 C-6.63374168 -0.15316257 -4.08173548 -0.48020417 0 0 Z " fill="#000000" transform="translate(131,104)"/>
<path d="M0 0 C1.375 2.5625 1.375 2.5625 2 5 C-0.91699357 6.94466238 -2.12063781 7.30350428 -5.4375 7.8125 C-8.77412353 8.51124097 -9.85111674 8.8625693 -12.4375 11.25 C-15.76533509 17.10698975 -16.57196353 22.34926128 -16 29 C-15.67 29.66 -15.34 30.32 -15 31 C-12.52470153 26.9495116 -11.72584894 23.60090799 -11.125 18.875 C-10.29583537 13.35180423 -10.29583537 13.35180423 -7.6875 10.25 C-4.81314007 8.9130884 -3.1138574 8.89568317 0 9 C-0.01160156 10.03898438 -0.02320313 11.07796875 -0.03515625 12.1484375 C-0.0941338 19.83026349 -0.02720665 27.36932205 1 35 C-5.625 36.25 -5.625 36.25 -9 34 C-9.04125 34.680625 -9.0825 35.36125 -9.125 36.0625 C-10.37674413 40.26478386 -12.67265738 43.16219744 -16 46 C-19.375 46.9375 -19.375 46.9375 -22 47 C-27.02066369 41.00759495 -27.37722117 34.83651431 -26.78125 27.1953125 C-25.34427348 17.44045266 -21.78177686 9.6014383 -13.98046875 3.41015625 C-9.20936964 0.01298312 -5.81366737 -2.11406086 0 0 Z " fill="#000000" transform="translate(195,160)"/>
<path d="M0 0 C-0.33 13.2 -0.66 26.4 -1 40 C-7 41 -7 41 -8.83154297 39.87988281 C-10.32321371 37.47999466 -10.50287829 35.7385491 -10.6953125 32.921875 C-10.77136719 31.92542969 -10.84742188 30.92898437 -10.92578125 29.90234375 C-10.99152344 28.86207031 -11.05726563 27.82179687 -11.125 26.75 C-11.27176572 24.70300445 -11.4201648 22.65612526 -11.5703125 20.609375 C-11.67025513 19.1567627 -11.67025513 19.1567627 -11.7722168 17.67480469 C-11.96636092 15.39501578 -12.26441624 13.1901346 -12.65234375 10.9375 C-13 8 -13 8 -11.4375 5.25 C-7.9429642 2.02427465 -4.82536263 0 0 0 Z " fill="#000000" transform="translate(211,150)"/>
<path d="M0 0 C0.75 3.25 0.75 3.25 1 7 C-1.57101236 10.80509829 -4.66853749 11.81869204 -9 13 C-9.66 12.34 -10.32 11.68 -11 11 C-11 7.625 -11 7.625 -10 4 C-6.38889667 0.87037711 -4.82403959 0 0 0 Z " fill="#000000" transform="translate(210,136)"/>
</svg>
